<svg width="125" height="49" viewBox="0 0 125 49" fill="none" xmlns="http://www.w3.org/2000/svg">
<path d="M23.694 18.238L29.022 31H26.07L24.918 28.264H19.5L18.366 31H15.396L20.724 18.238H23.694ZM23.892 25.78L22.218 21.766L20.544 25.78H23.892ZM29.9445 17.842H32.4285V31H29.9445V17.842ZM34.6526 21.316C34.6526 20.692 34.7426 20.158 34.9226 19.714C35.1146 19.258 35.3666 18.886 35.6786 18.598C35.9906 18.298 36.3506 18.082 36.7586 17.95C37.1666 17.806 37.5986 17.734 38.0546 17.734C38.3306 17.734 38.6066 17.758 38.8826 17.806C39.1586 17.854 39.4346 17.926 39.7106 18.022L39.5126 19.84L38.9186 19.75C38.8226 19.738 38.7326 19.732 38.6486 19.732C38.5766 19.72 38.5046 19.714 38.4326 19.714C37.9766 19.714 37.6406 19.828 37.4246 20.056C37.2206 20.272 37.1186 20.59 37.1186 21.01V22.072H39.5126V24.286H37.1186V31H34.6526V24.286H33.4826V22.972L34.6526 22.072V21.316ZM50.1129 22.072V31H47.9709L47.7189 30.046C47.3709 30.514 46.9509 30.826 46.4589 30.982C45.9789 31.138 45.4749 31.216 44.9469 31.216C44.3109 31.216 43.7229 31.096 43.1829 30.856C42.6549 30.604 42.1929 30.268 41.7969 29.848C41.4009 29.416 41.0889 28.918 40.8609 28.354C40.6449 27.778 40.5369 27.166 40.5369 26.518C40.5369 25.87 40.6449 25.264 40.8609 24.7C41.0889 24.124 41.4009 23.626 41.7969 23.206C42.1929 22.774 42.6549 22.438 43.1829 22.198C43.7229 21.946 44.3109 21.82 44.9469 21.82C45.5229 21.82 46.0509 21.91 46.5309 22.09C47.0109 22.27 47.4069 22.558 47.7189 22.954L47.9709 22.072H50.1129ZM47.6289 26.554C47.6289 26.086 47.5629 25.696 47.4309 25.384C47.3109 25.06 47.1429 24.802 46.9269 24.61C46.7229 24.406 46.4769 24.262 46.1889 24.178C45.9129 24.082 45.6129 24.034 45.2889 24.034C44.9649 24.034 44.6589 24.1 44.3709 24.232C44.0949 24.364 43.8489 24.544 43.6329 24.772C43.4169 24.988 43.2489 25.252 43.1289 25.564C43.0089 25.864 42.9489 26.182 42.9489 26.518C42.9489 26.866 43.0089 27.19 43.1289 27.49C43.2489 27.79 43.4169 28.054 43.6329 28.282C43.8489 28.498 44.0949 28.672 44.3709 28.804C44.6589 28.936 44.9649 29.002 45.2889 29.002C45.9369 29.002 46.4829 28.804 46.9269 28.408C47.3829 28 47.6169 27.382 47.6289 26.554ZM63.0331 23.782H67.8571V28.462C67.1371 29.374 66.3391 30.064 65.4631 30.532C64.5871 31 63.6691 31.234 62.7091 31.234C61.8451 31.234 61.0291 31.06 60.2611 30.712C59.4931 30.352 58.8271 29.872 58.2631 29.272C57.6991 28.672 57.2491 27.976 56.9131 27.184C56.5891 26.38 56.4271 25.528 56.4271 24.628C56.4271 23.728 56.5891 22.882 56.9131 22.09C57.2491 21.298 57.6991 20.602 58.2631 20.002C58.8271 19.402 59.4931 18.928 60.2611 18.58C61.0291 18.232 61.8451 18.058 62.7091 18.058C63.5251 18.058 64.2931 18.208 65.0131 18.508C65.7451 18.808 66.4531 19.306 67.1371 20.002L65.5531 21.928C65.0491 21.46 64.5751 21.148 64.1311 20.992C63.6871 20.824 63.2191 20.74 62.7271 20.74C62.2231 20.74 61.7491 20.842 61.3051 21.046C60.8731 21.25 60.4951 21.526 60.1711 21.874C59.8471 22.222 59.5891 22.636 59.3971 23.116C59.2171 23.584 59.1271 24.088 59.1271 24.628C59.1271 25.168 59.2171 25.672 59.3971 26.14C59.5891 26.608 59.8471 27.022 60.1711 27.382C60.4951 27.73 60.8731 28.006 61.3051 28.21C61.7491 28.414 62.2231 28.516 62.7271 28.516C63.1711 28.516 63.6091 28.438 64.0411 28.282C64.4851 28.114 64.9291 27.844 65.3731 27.472V26.086H63.0331V23.782ZM71.7307 23.314C71.8507 23.122 71.9887 22.942 72.1447 22.774C72.3007 22.594 72.4867 22.438 72.7027 22.306C72.9187 22.162 73.1647 22.048 73.4407 21.964C73.7167 21.88 74.0287 21.838 74.3767 21.838C74.7847 21.838 75.2587 21.91 75.7987 22.054L75.5647 24.268C75.4327 24.244 75.3007 24.214 75.1687 24.178C75.0607 24.154 74.9407 24.136 74.8087 24.124C74.6767 24.1 74.5567 24.088 74.4487 24.088C74.0647 24.088 73.7047 24.142 73.3687 24.25C73.0447 24.358 72.7627 24.508 72.5227 24.7C72.2827 24.892 72.0907 25.126 71.9467 25.402C71.8027 25.666 71.7307 25.954 71.7307 26.266V31H69.2467V22.072H71.4967L71.7307 23.314ZM81.0926 21.82C81.7286 21.82 82.3286 21.946 82.8926 22.198C83.4566 22.438 83.9486 22.774 84.3686 23.206C84.7886 23.626 85.1186 24.124 85.3586 24.7C85.6106 25.264 85.7366 25.87 85.7366 26.518C85.7366 27.166 85.6106 27.778 85.3586 28.354C85.1186 28.918 84.7886 29.416 84.3686 29.848C83.9486 30.268 83.4566 30.604 82.8926 30.856C82.3286 31.096 81.7286 31.216 81.0926 31.216C80.4446 31.216 79.8386 31.096 79.2746 30.856C78.7106 30.604 78.2186 30.268 77.7986 29.848C77.3786 29.416 77.0426 28.918 76.7906 28.354C76.5506 27.778 76.4306 27.166 76.4306 26.518C76.4306 25.87 76.5506 25.264 76.7906 24.7C77.0426 24.124 77.3786 23.626 77.7986 23.206C78.2186 22.774 78.7106 22.438 79.2746 22.198C79.8386 21.946 80.4446 21.82 81.0926 21.82ZM81.0926 29.038C81.3926 29.038 81.6686 28.978 81.9206 28.858C82.1846 28.738 82.4126 28.576 82.6046 28.372C82.8086 28.156 82.9646 27.904 83.0726 27.616C83.1926 27.316 83.2526 26.986 83.2526 26.626C83.2526 26.266 83.1926 25.93 83.0726 25.618C82.9646 25.306 82.8086 25.036 82.6046 24.808C82.4126 24.568 82.1846 24.382 81.9206 24.25C81.6686 24.106 81.3926 24.034 81.0926 24.034C80.7926 24.034 80.5106 24.106 80.2466 24.25C79.9826 24.382 79.7486 24.568 79.5446 24.808C79.3526 25.036 79.1966 25.306 79.0766 25.618C78.9686 25.93 78.9146 26.266 78.9146 26.626C78.9146 26.986 78.9686 27.316 79.0766 27.616C79.1966 27.904 79.3526 28.156 79.5446 28.372C79.7486 28.576 79.9826 28.738 80.2466 28.858C80.5106 28.978 80.7926 29.038 81.0926 29.038ZM92.6886 22.072H95.1726V31H93.0486L92.6886 30.316C92.4006 30.52 92.0706 30.688 91.6986 30.82C91.3386 30.94 90.9486 31 90.5286 31C90.2046 31 89.8326 30.952 89.4126 30.856C89.0046 30.76 88.6206 30.58 88.2606 30.316C87.9006 30.052 87.5946 29.686 87.3426 29.218C87.1026 28.75 86.9826 28.144 86.9826 27.4V22.072H89.4846V27.31C89.4846 27.586 89.5266 27.82 89.6106 28.012C89.7066 28.204 89.8266 28.36 89.9706 28.48C90.1266 28.588 90.3006 28.672 90.4926 28.732C90.6846 28.78 90.8826 28.804 91.0866 28.804C91.2426 28.804 91.4106 28.78 91.5906 28.732C91.7826 28.672 91.9566 28.582 92.1126 28.462C92.2806 28.342 92.4186 28.186 92.5266 27.994C92.6346 27.802 92.6886 27.574 92.6886 27.31V22.072ZM101.976 21.82C102.612 21.82 103.2 21.946 103.74 22.198C104.28 22.438 104.742 22.774 105.126 23.206C105.522 23.626 105.828 24.124 106.044 24.7C106.272 25.264 106.386 25.87 106.386 26.518C106.386 27.166 106.272 27.778 106.044 28.354C105.828 28.918 105.522 29.416 105.126 29.848C104.742 30.268 104.28 30.604 103.74 30.856C103.2 31.096 102.612 31.216 101.976 31.216C101.46 31.216 100.956 31.126 100.464 30.946C99.972 30.754 99.588 30.514 99.312 30.226V34.564H96.828V22.072H98.952L99.312 22.684C99.66 22.372 100.05 22.15 100.482 22.018C100.914 21.886 101.412 21.82 101.976 21.82ZM101.652 29.002C101.976 29.002 102.276 28.936 102.552 28.804C102.84 28.672 103.086 28.498 103.29 28.282C103.506 28.054 103.674 27.79 103.794 27.49C103.926 27.19 103.992 26.866 103.992 26.518C103.992 26.182 103.926 25.864 103.794 25.564C103.674 25.252 103.506 24.988 103.29 24.772C103.086 24.544 102.84 24.364 102.552 24.232C102.276 24.1 101.976 24.034 101.652 24.034C101.328 24.034 101.022 24.082 100.734 24.178C100.458 24.262 100.212 24.406 99.996 24.61C99.792 24.802 99.63 25.06 99.51 25.384C99.39 25.696 99.33 26.074 99.33 26.518C99.33 26.938 99.39 27.304 99.51 27.616C99.63 27.916 99.792 28.174 99.996 28.39C100.212 28.594 100.458 28.75 100.734 28.858C101.022 28.954 101.328 29.002 101.652 29.002ZM107.877 18.238H110.667L109.191 23.116H107.283L107.877 18.238ZM116.789 26.32C117.449 26.788 117.779 27.454 117.779 28.318C117.779 28.714 117.683 29.086 117.491 29.434C117.311 29.782 117.059 30.088 116.735 30.352C116.411 30.616 116.033 30.826 115.601 30.982C115.169 31.126 114.707 31.198 114.215 31.198C113.843 31.198 113.477 31.15 113.117 31.054C112.769 30.958 112.445 30.826 112.145 30.658C111.845 30.49 111.581 30.292 111.353 30.064C111.137 29.824 110.975 29.56 110.867 29.272C111.143 29.14 111.449 28.996 111.785 28.84C112.121 28.672 112.415 28.522 112.667 28.39C112.775 28.57 112.943 28.738 113.171 28.894C113.399 29.038 113.711 29.11 114.107 29.11C114.515 29.11 114.815 29.014 115.007 28.822C115.199 28.63 115.295 28.45 115.295 28.282C115.295 28.162 115.229 28.054 115.097 27.958C114.965 27.85 114.815 27.766 114.647 27.706C114.407 27.61 114.209 27.562 114.053 27.562C113.897 27.55 113.717 27.514 113.513 27.454C112.865 27.298 112.367 27.094 112.019 26.842C111.683 26.578 111.437 26.314 111.281 26.05C111.125 25.786 111.035 25.534 111.011 25.294C110.999 25.054 110.993 24.862 110.993 24.718C110.993 24.334 111.077 23.968 111.245 23.62C111.413 23.272 111.641 22.972 111.929 22.72C112.229 22.456 112.571 22.246 112.955 22.09C113.351 21.934 113.771 21.856 114.215 21.856C114.587 21.856 114.941 21.91 115.277 22.018C115.613 22.126 115.919 22.276 116.195 22.468C116.471 22.66 116.705 22.888 116.897 23.152C117.101 23.416 117.251 23.71 117.347 24.034L115.421 24.682C115.349 24.466 115.199 24.292 114.971 24.16C114.755 24.028 114.521 23.962 114.269 23.962C114.017 23.962 113.813 24.046 113.657 24.214C113.501 24.382 113.423 24.55 113.423 24.718C113.423 24.922 113.495 25.084 113.639 25.204C113.795 25.312 113.963 25.39 114.143 25.438C114.275 25.462 114.401 25.486 114.521 25.51C114.653 25.522 114.779 25.54 114.899 25.564C115.319 25.66 115.679 25.768 115.979 25.888C116.291 26.008 116.561 26.152 116.789 26.32Z" fill="black"/>
<path fill-rule="evenodd" clip-rule="evenodd" d="M6 2H95.2958C96.6839 2 97.9727 2.71967 98.701 3.9014L104.925 14H107.274L100.404 2.8521C99.3112 1.0795 97.3779 0 95.2958 0H6C2.68629 0 0 2.68629 0 6V43C0 46.3137 2.6863 49 6.00001 49H118.098C122.794 49 125.67 43.8496 123.206 39.8521L118.983 33H116.634L121.503 40.9014C123.146 43.5664 121.229 47 118.098 47H6.00001C3.79086 47 2 45.2091 2 43V6C2 3.79086 3.79086 2 6 2Z" fill="#F86800"/>
</svg>
